<?xml version="1.0" encoding="UTF-8"?>
<svg width="55px" height="48px" viewBox="0 0 55 48" version="1.1" xmlns="http://www.w3.org/2000/svg" xmlns:xlink="http://www.w3.org/1999/xlink">
    <!-- Generator: Sketch 58 (84663) - https://sketch.com -->
    <title>Group</title>
    <desc>Created with Sketch.</desc>
    <g id="Search-software-supplier" stroke="none" stroke-width="1" fill="none" fill-rule="evenodd">
        <g id="landing" transform="translate(-466.000000, -1476.000000)" fill-rule="nonzero">
            <g id="Group" transform="translate(466.000000, 1476.785714)">
                <path d="M51.0714286,15.7142857 C52.1558834,15.7142857 53.0817484,16.0979314 53.8490513,16.8652344 C54.6163543,17.6325373 55,18.5584023 55,19.6428571 C55,20.727312 54.6163543,21.653177 53.8490513,22.4204799 C53.0817484,23.1877829 52.1558834,23.5714286 51.0714286,23.5714286 L51.0714286,35.3571429 C51.0714286,36.4211363 50.6826676,37.341886 49.9051339,38.1194196 C49.1276003,38.8969533 48.2068506,39.2857143 47.1428571,39.2857143 C38.6104484,32.1856044 30.3032398,28.2979944 22.2209821,27.6227679 C21.0342203,28.0115347 20.10324,28.6867511 19.4280134,29.6484375 C18.7527868,30.6101239 18.4356397,31.6382944 18.4765625,32.7329799 C18.5174853,33.8276654 18.9267074,34.7739915 19.7042411,35.5719866 C19.2950128,36.2472132 19.0597101,36.9173144 18.9983259,37.5823103 C18.9369417,38.2473062 18.998325,38.8406782 19.1824777,39.3624442 C19.3666304,39.8842102 19.7093539,40.4468906 20.2106585,41.0505022 C20.7119631,41.6541139 21.2030296,42.1656415 21.6838728,42.5851004 L22.0723184,42.9179169 C22.4885776,43.2689558 22.9882783,43.6746629 23.5714286,44.1350446 C22.9780476,45.3218065 21.837341,46.1709424 20.1492746,46.6824777 C18.4612081,47.194013 16.73736,47.3116643 14.9776786,47.0354353 C13.2179972,46.7592062 11.8675642,46.1914105 10.9263393,45.3320313 L10.7122004,44.6653429 C10.6022734,44.3336827 10.4632205,43.9240403 10.2950409,43.4364133 L9.54874153,41.2803267 C9.38347736,40.7965204 9.24654461,40.3879014 9.13794232,40.0544669 L9.03878348,39.7460938 C8.84440007,39.1322514 8.60909736,38.2217322 8.3328683,37.0145089 C8.05663924,35.8072856 7.90318096,34.7739998 7.87248884,33.9146205 C7.84179672,33.0552412 7.87760366,32.0475318 7.97991071,30.8914621 C8.08221777,29.7353923 8.30728993,28.6049162 8.65513393,27.5 L4.91071429,27.5 C3.5602611,27.5 2.40420868,27.019164 1.44252232,26.0574777 C0.480835965,25.0957913 0,23.9397389 0,22.5892857 L0,16.6964286 C0,15.3459754 0.480835965,14.189923 1.44252232,13.2282366 C2.40420868,12.2665503 3.5602611,11.7857143 4.91071429,11.7857143 L19.6428571,11.7857143 C28.5435713,11.7857143 37.7101463,7.85718214 47.1428571,3.19744231e-14 C48.2068506,3.19744231e-14 49.1276003,0.388760993 49.9051339,1.16629464 C50.6826676,1.94382829 51.0714286,2.86457801 51.0714286,3.92857143 L51.0714286,15.7142857 Z" id="Path" fill="#002452"></path>
                <path d="M47.1428571,34.2522321 C39.1424451,28.13427 31.2853808,24.6456516 23.5714286,23.7862723 L23.5714286,15.499442 C31.2239966,14.6605241 39.0810609,11.1514446 47.1428571,4.97209821 L47.1428571,34.2522321 Z" id="Path" fill="#F6F4F0"></path>
            </g>
        </g>
    </g>
</svg>