<?xml version="1.0" encoding="UTF-8"?>
<svg width="62px" height="75px" viewBox="0 0 62 75" version="1.1" xmlns="http://www.w3.org/2000/svg" xmlns:xlink="http://www.w3.org/1999/xlink">
    <!-- Generator: Sketch 61 (89581) - https://sketch.com -->
    <title>Group</title>
    <desc>Created with Sketch.</desc>
    <defs>
        <polygon id="path-1" points="0 0.244417721 28.9198268 0.244417721 28.9198268 42.8774929 0 42.8774929"></polygon>
        <polygon id="path-3" points="0.126166781 0.304088366 19.9980645 0.304088366 19.9980645 41.9411329 0.126166781 41.9411329"></polygon>
    </defs>
    <g id="Search-software-supplier" stroke="none" stroke-width="1" fill="none" fill-rule="evenodd">
        <g id="landing" transform="translate(-211.000000, -1466.000000)">
            <g id="Group" transform="translate(211.000000, 1466.000000)">
                <circle id="Oval" fill="#F6F4F0" cx="31" cy="31" r="31"></circle>
                <g id="Group-13" transform="translate(4.000000, 16.000000)">
                    <g id="Group-3" transform="translate(0.000000, 16.000000)">
                        <mask id="mask-2" fill="white">
                            <use xlink:href="#path-1"></use>
                        </mask>
                        <g id="Clip-2"></g>
                        <path d="M7.33002697,42.8774929 C5.77999326,42.2710386 5.33619551,41.1559153 5.3430382,39.6110916 C5.39126292,28.5298817 5.3720382,17.4483634 5.36128539,6.36715346 C5.36095955,5.86743016 5.23485843,5.3683238 5.16740899,4.86890898 C4.99601573,4.86366497 4.82494831,4.85842096 4.65322921,4.85286847 C4.56851011,5.29429072 4.41308315,5.73509603 4.41015056,6.17682674 C4.37724045,10.8828629 4.41927416,15.5904415 4.29936404,20.2943184 C4.2814427,21.004419 3.70437528,21.9403206 3.07940899,22.3240587 C2.56522921,22.6393162 1.46094831,22.5038974 0.871173034,22.1688977 C0.386644944,21.8934329 0.0386449438,21.0337238 0.0327797753,20.4297372 C-0.0164224719,15.3816065 -0.0121865169,10.3322419 0.0585213483,5.28441964 C0.0986,2.42334953 2.26773483,0.356284203 5.30491461,0.300450921 C9.23555506,0.227960196 13.1697798,0.223024657 17.0997685,0.301993277 C20.148027,0.363070569 22.2203865,2.44802722 22.2813191,5.32051077 C22.3047798,6.42483757 22.2849034,7.5297813 22.2849034,8.92931501 C23.3940719,8.29756605 24.2904652,7.78241919 25.1910944,7.27498412 C26.6384876,6.45938634 27.9161169,6.63583185 28.6020157,7.7395417 C29.2660831,8.80870278 28.8780045,9.96917133 27.5453079,10.7671863 C25.6003528,11.931048 23.6488809,13.0847302 21.6824202,14.2155855 C19.7283416,15.3396544 18.0264652,14.4929011 17.9541281,12.3243487 C17.8827685,10.186952 17.9267573,8.04616204 17.8980831,5.90722294 C17.892218,5.4870852 17.7856674,5.06818135 17.7253865,4.64866056 C17.5741955,4.63848101 17.4230045,4.62799299 17.2714876,4.61781344 C17.1756899,5.01450737 16.9958247,5.41089282 16.9958247,5.80758675 C16.9974539,17.1451362 17.0016899,28.4826856 17.0521955,39.8202351 C17.0590382,41.3613571 16.3887798,42.330265 14.9228135,42.8774929 L13.566982,42.8774929 C12.1248022,42.0853389 11.7139146,40.8829183 11.7292292,39.3445725 C11.7888584,33.4003331 11.7569258,27.4554766 11.7474764,21.5109287 C11.7464989,20.8887423 11.9729596,19.9941759 10.5920382,20.4735401 L10.5920382,21.8385251 C10.5920382,27.740504 10.5513079,33.6427914 10.619409,39.5438449 C10.6373303,41.0852754 10.1101169,42.170477 8.68585843,42.8774929 L7.33002697,42.8774929 Z" id="Fill-1" fill="#002452" mask="url(#mask-2)"></path>
                    </g>
                    <path d="M49.4334519,0 C50.873019,0.59946633 52.1605974,1.3577419 52.7302459,2.94059204 C53.5473392,5.20986813 52.4488198,7.75297451 50.2372617,8.66296687 C47.9657732,9.59793699 45.3180201,8.519576 44.3603682,6.26972706 C43.4132196,4.04362242 44.3921869,1.50421644 46.6040539,0.458542403 C46.943557,0.298191327 47.2904741,0.152641889 47.6336842,0 L49.4334519,0 Z" id="Fill-4" fill="#002452"></path>
                    <g id="Group-8" transform="translate(34.000000, 10.000000)">
                        <mask id="mask-4" fill="white">
                            <use xlink:href="#path-3"></use>
                        </mask>
                        <g id="Clip-7"></g>
                        <path d="M13.2026452,3.48110526 C11.5368387,4.19257895 9.87135484,4.90436842 8.12587097,5.64994737 C7.41135484,1.881 8.73522581,0.319736842 12.2584516,0.317526316 C13.6894194,0.316578947 15.122,0.281210526 16.5516774,0.329210526 C18.6955484,0.400894737 19.9700645,1.62678947 19.9749032,3.73373684 C20.0026452,15.555 20.002,27.3765789 19.9910323,39.1981579 C19.9897419,40.8077368 18.8700645,41.9060526 17.3526452,41.9205789 C15.7629677,41.9357368 14.6155484,40.8326842 14.6074839,39.1659474 C14.5778065,32.9925789 14.5739355,26.8192105 14.5790968,20.6458421 C14.5797419,19.8503684 14.5584516,19.1853158 13.2929677,19.6037368 L13.2929677,20.9647895 C13.2926452,27.0071053 13.2861935,33.0491053 13.2971613,39.0911053 C13.2994194,40.3141579 12.7939355,41.2479474 11.6510323,41.7001579 C10.5949032,42.1182632 9.49232258,42.0301579 8.69812903,41.1352105 C8.31296774,40.7013158 7.93587097,40.0722632 7.93296774,39.5291053 C7.88490323,31.2156316 7.89974194,22.9015263 7.89974194,14.4851053 C9.23845161,14.3025789 10.5278065,14.2154211 11.7661935,13.9211053 C12.398129,13.7707895 13.1665161,13.3823684 13.4794194,12.8707895 C14.7061935,10.8655263 15.7765161,8.76805263 16.9049032,6.70468421 C16.7971613,6.61184211 16.6890968,6.51868421 16.5813548,6.42552632 C15.2497419,7.81121053 13.8987742,9.17952632 12.5939355,10.5888947 C11.8345806,11.409 10.9761935,11.8397368 9.81296774,11.9272105 C7.49941935,12.1008947 5.20135484,12.4612105 2.8903871,12.6797368 C1.28070968,12.8319474 0.241354839,12.0301579 0.132967742,10.6820526 C0.0394193548,9.51615789 0.917806452,8.55773684 2.34458065,8.36447368 C4.33490323,8.09510526 6.33845161,7.91478947 8.32264516,7.61131579 C8.88877419,7.52510526 9.50232258,7.25005263 9.93103226,6.88026316 C11.1194194,5.85552632 12.2216774,4.73542105 13.358129,3.65321053 L13.2026452,3.48110526 Z" id="Fill-6" fill="#002452" mask="url(#mask-4)"></path>
                    </g>
                    <path d="M28.610015,26.7640792 C29.970704,24.1854463 29.9276947,22.7289963 28.5319609,21.3420593 C27.168086,19.9868566 25.6171999,19.8212341 23,20.851841 C23.3969606,18.6337695 23.7528233,16.5148296 24.1915189,14.4116057 C24.2319795,14.2169691 24.8235973,13.9643042 25.119247,14.0041987 C27.5178955,14.3284923 29.9120839,14.690867 32.2922543,15.1176168 C32.5856738,15.1702049 33.0367943,15.7042467 32.997608,15.9575161 C32.4630175,19.4313564 31.8733112,22.8982455 31.2288078,26.3551609 C31.1791081,26.6223329 30.6349599,26.9499511 30.2880176,26.9892411 C29.7881532,27.0460605 29.2580228,26.8641176 28.610015,26.7640792" id="Fill-9" fill="#002452"></path>
                    <path d="M13.9997393,8.45938915 C14.0262869,10.9260351 12.0219416,12.9662244 9.54006276,12.9995964 C7.05721272,13.0326476 5.01563594,11.0312855 5.00009587,8.54859529 C4.98423205,6.04440575 6.93904344,4.04561069 9.44746984,4.00068674 C11.8888797,3.95704633 13.9731917,5.99916091 13.9997393,8.45938915" id="Fill-11" fill="#002452"></path>
                </g>
            </g>
        </g>
    </g>
</svg>