<svg xmlns="http://www.w3.org/2000/svg" xmlns:xlink="http://www.w3.org/1999/xlink" width="92" height="162" viewBox="0 0 92 162">
  <defs>
    <clipPath id="clip-path">
      <path id="Clip_2" data-name="Clip 2" d="M0,0H92V110H0Z" fill="none"/>
    </clipPath>
  </defs>
  <g id="Group_1" data-name="Group 1" transform="translate(-825 -256)">
    <g id="Group_3" data-name="Group 3" transform="translate(825 308)">
      <path id="Clip_2-2" data-name="Clip 2" d="M0,0H92V110H0Z" fill="none"/>
      <g id="Group_3-2" data-name="Group 3" clip-path="url(#clip-path)">
        <path id="Fill_1" data-name="Fill 1" d="M60.241,110H48.85V74.809h11.39Zm-13.716,0H35.334V74.809H46.525ZM32.931,72.617H0V37.057A16.129,16.129,0,0,1,4.822,25.522a16.578,16.578,0,0,1,23.287,0,16.129,16.129,0,0,1,4.822,11.534ZM92,72.608H35.152V37.057a18.483,18.483,0,0,0-9.864-16.312H39.966V38.878h2.126V0H57.846V7.949L49.423,9.616V20.745h26.1a16.449,16.449,0,0,1,11.648,4.777A16.121,16.121,0,0,1,92,37.057Z" fill="#002452"/>
      </g>
    </g>
    <path id="Fill_1-2" data-name="Fill 1" d="M9.52,0V16.506H0L14,34h0L28,16.506H18.48V0Z" transform="translate(857 256)" fill="#ffb512"/>
  </g>
</svg>
