<?xml version="1.0" encoding="UTF-8"?> <svg xmlns="http://www.w3.org/2000/svg" width="414" height="175" fill="none"><path d="M36.747 186.256v-51.104c0-2.885-2.144-5.152-4.873-5.152-2.73 0-4.874 2.267-4.874 5.152v51.104c0 2.885 2.144 5.151 4.874 5.151 2.729 0 4.873-2.266 4.873-5.151Z" fill="#03A99C"></path><path d="M136.722 25.82v-67.663c0-2.888-2.359-5.157-5.361-5.157S126-44.73 126-41.843V25.82c0 2.888 2.359 5.157 5.361 5.157s5.361-2.269 5.361-5.157Z" fill="#1774BB"></path><path d="M384.92 29.235h67.445c2.87 0 5.125-2.251 5.125-5.117s-2.255-5.117-5.125-5.117h-67.24c-2.87 0-5.125 2.251-5.125 5.117s2.255 5.117 4.92 5.117Z" fill="#32B3E4"></path><path d="M405.403 127.162c1.435-.613 2.459-1.84 2.459-3.475 0-1.226-.615-2.248-1.639-3.066-1.025-.613-2.255-.817-3.28-.408-23.366 8.38-38.943 30.863-38.943 55.594s15.782 47.01 38.943 55.594c.41.204.82.204 1.23.204.82 0 1.435-.204 2.05-.613 1.024-.613 1.639-1.839 1.639-3.066 0-1.43-1.024-2.861-2.459-3.474-20.497-7.358-34.229-26.98-34.229-48.645 0-21.666 13.732-41.287 34.229-48.645Z" fill="#F6C514"></path></svg> 