<svg xmlns="http://www.w3.org/2000/svg" xmlns:xlink="http://www.w3.org/1999/xlink" width="118.775" height="42.223" viewBox="0 0 118.775 42.223">
  <defs>
    <clipPath id="clip-path">
      <path id="Clip_25" data-name="Clip 25" d="M0,0H7.694V10.64H0Z" transform="translate(0.313 0.305)" fill="none"/>
    </clipPath>
    <clipPath id="clip-path-2">
      <path id="Clip_36" data-name="Clip 36" d="M0,42.223H118.775V0H0Z" transform="translate(0 0.777)" fill="none"/>
    </clipPath>
  </defs>
  <g id="Group_42" data-name="Group 42" transform="translate(0 -0.777)">
    <path id="Fill_1" data-name="Fill 1" d="M3.585,5.673,0,0H1.033l3,4.945L7.083,0H8L4.459,5.673V10H3.585Z" transform="translate(35 2)" fill="#002452"/>
    <g id="Group_41" data-name="Group 41">
      <path id="Fill_2" data-name="Fill 2" d="M4.618,10.64a5.018,5.018,0,0,1-1.837-.333,3.935,3.935,0,0,1-1.466-1A4.772,4.772,0,0,1,.35,7.646,6.935,6.935,0,0,1,0,5.349a7,7,0,0,1,.35-2.3,4.785,4.785,0,0,1,.972-1.675A4.122,4.122,0,0,1,2.789.347,4.777,4.777,0,0,1,4.618,0,4.942,4.942,0,0,1,6.449.334a3.863,3.863,0,0,1,1.452,1,4.819,4.819,0,0,1,.958,1.652,6.877,6.877,0,0,1,.35,2.291A7.153,7.153,0,0,1,8.866,7.6a4.809,4.809,0,0,1-.95,1.674,4,4,0,0,1-1.452,1.022A4.814,4.814,0,0,1,4.618,10.64Zm0-9.875A3.731,3.731,0,0,0,3,1.1a3.148,3.148,0,0,0-1.151.936,4.317,4.317,0,0,0-.693,1.44A6.788,6.788,0,0,0,.915,5.32a7,7,0,0,0,.229,1.844A4.116,4.116,0,0,0,1.837,8.6,3.2,3.2,0,0,0,3,9.541a3.731,3.731,0,0,0,1.623.333,3.619,3.619,0,0,0,1.589-.333A3.228,3.228,0,0,0,7.358,8.6a4.224,4.224,0,0,0,.7-1.441A6.808,6.808,0,0,0,8.293,5.32a6.643,6.643,0,0,0-.242-1.845,4.341,4.341,0,0,0-.709-1.44A3.237,3.237,0,0,0,6.192,1.1,3.589,3.589,0,0,0,4.618.765Z" transform="translate(42.912 1.622)" fill="#002452"/>
      <path id="Fill_4" data-name="Fill 4" d="M0,0H.872V6.171a4.171,4.171,0,0,0,.673,2.583,2.634,2.634,0,0,0,2.216.865A3.5,3.5,0,0,0,5.084,9.4a2.084,2.084,0,0,0,.872-.652,2.758,2.758,0,0,0,.486-1.078,6.661,6.661,0,0,0,.151-1.5V0h.872V6.157a6.514,6.514,0,0,1-.251,1.922,3.33,3.33,0,0,1-.73,1.313,2.87,2.87,0,0,1-1.173.752,4.765,4.765,0,0,1-1.566.241,4.86,4.86,0,0,1-1.594-.241A2.842,2.842,0,0,1,.98,9.385,3.4,3.4,0,0,1,.25,8.052,6.723,6.723,0,0,1,0,6.1Z" transform="translate(54.023 1.877)" fill="#002452"/>
      <path id="Fill_6" data-name="Fill 6" d="M.859,10.131H0V0H3.2A5.72,5.72,0,0,1,5.012.241,3.026,3.026,0,0,1,6.127.866a1.991,1.991,0,0,1,.558.879,3.477,3.477,0,0,1,.15,1.007A3,3,0,0,1,6.4,4.4,2.7,2.7,0,0,1,4.977,5.433l2.2,4.7H6.163l-2.045-4.5c-.152.019-.316.035-.5.05-.166.014-.344.021-.544.021H.859V10.13Zm0-9.38V4.937H3.317A4.678,4.678,0,0,0,4.6,4.788a1.934,1.934,0,0,0,.807-.433,1.553,1.553,0,0,0,.422-.68,3.139,3.139,0,0,0,.122-.909,2.73,2.73,0,0,0-.128-.871,1.368,1.368,0,0,0-.451-.632A2.2,2.2,0,0,0,4.513.879,6.035,6.035,0,0,0,3.161.752Z" transform="translate(63.761 1.877)" fill="#002452"/>
      <path id="Fill_8" data-name="Fill 8" d="M9.067,7.007A3.406,3.406,0,0,1,8.745,8.49a3.225,3.225,0,0,1-.923,1.15,4.424,4.424,0,0,1-1.459.738,6.612,6.612,0,0,1-1.931.262,7.2,7.2,0,0,1-1.687-.192A4.08,4.08,0,0,1,1.33,9.824,3.07,3.07,0,0,1,.358,8.7,3.607,3.607,0,0,1,0,7.022H3.2a1.163,1.163,0,0,0,.393.9,1.632,1.632,0,0,0,.993.262,1.886,1.886,0,0,0,.945-.2.645.645,0,0,0,.343-.595.527.527,0,0,0-.214-.454,2.009,2.009,0,0,0-.672-.271L3.961,6.4a5.262,5.262,0,0,1-2.3-1.085A2.4,2.4,0,0,1,.958,3.489,3.252,3.252,0,0,1,1.28,2.021,3.088,3.088,0,0,1,2.188.929,4.289,4.289,0,0,1,3.6.241,6.427,6.427,0,0,1,5.405,0a7.555,7.555,0,0,1,1.4.134A4.209,4.209,0,0,1,8.137.624a3.005,3.005,0,0,1,1.015.958,3.212,3.212,0,0,1,.472,1.553l-3.16.326a1.336,1.336,0,0,0-.371-.731,1.287,1.287,0,0,0-.917-.276,1.372,1.372,0,0,0-.764.177.572.572,0,0,0-.265.5.526.526,0,0,0,.179.4,1.735,1.735,0,0,0,.722.291l1.1.269a7.629,7.629,0,0,1,1.18.384,3.474,3.474,0,0,1,.923.56,2.306,2.306,0,0,1,.6.816,2.814,2.814,0,0,1,.214,1.148" transform="translate(34.975 16.991)" fill="#002452"/>
      <path id="Fill_10" data-name="Fill 10" d="M4.619,10.641a5.688,5.688,0,0,1-1.838-.291,4.044,4.044,0,0,1-1.465-.867A3.993,3.993,0,0,1,.35,8.044a5.326,5.326,0,0,1-.35-2A6.787,6.787,0,0,1,.386,3.766,5.986,5.986,0,0,1,1.509,1.837,5.361,5.361,0,0,1,3.326.5,5.676,5.676,0,0,1,5.72,0,5.663,5.663,0,0,1,7.565.292a4.074,4.074,0,0,1,1.466.872A4.034,4.034,0,0,1,10,2.611a5.342,5.342,0,0,1,.35,2A6.725,6.725,0,0,1,9.96,6.895a5.893,5.893,0,0,1-1.137,1.93,5.428,5.428,0,0,1-1.809,1.327A5.693,5.693,0,0,1,4.619,10.641Zm.9-7.888a1.608,1.608,0,0,0-1.067.354,2.486,2.486,0,0,0-.657.867,4.168,4.168,0,0,0-.329,1.07,6.077,6.077,0,0,0-.094.972,3.644,3.644,0,0,0,.058.638,1.93,1.93,0,0,0,.207.6,1.224,1.224,0,0,0,.429.454,1.36,1.36,0,0,0,.736.177,1.611,1.611,0,0,0,1.066-.354,2.586,2.586,0,0,0,.665-.867A4.093,4.093,0,0,0,6.872,5.6a6.177,6.177,0,0,0,.092-.973A4.04,4.04,0,0,0,6.915,4a1.772,1.772,0,0,0-.207-.6,1.271,1.271,0,0,0-1.187-.644Z" transform="translate(45.128 16.99)" fill="#002452"/>
      <path id="Fill_12" data-name="Fill 12" d="M2.159,0H9.4L8.852,2.54H4.79L4.433,4.2H8.265l-.543,2.54H3.889L3.174,10.13H0Z" transform="translate(55.668 17.246)" fill="#002452"/>
      <path id="Fill_14" data-name="Fill 14" d="M2.846,2.753H0L.586,0H9.524L8.937,2.753H6.092L4.518,10.131H1.273Z" transform="translate(65.549 17.245)" fill="#002452"/>
      <path id="Fill_16" data-name="Fill 16" d="M8.365,6.412,10.825,0h3.318L9.466,10.13H6.049l.043-5.674L3.8,10.13H.443L0,0H3.418L3.131,6.171l2.49-6.1h2.86Z" transform="translate(75.86 17.246)" fill="#002452"/>
      <path id="Fill_18" data-name="Fill 18" d="M3.2,10.131H0L5.449,0h4l1.159,10.129H7.337L7.237,8.5H3.99L3.2,10.13ZM6.865,2.624,5.219,5.987H7.079Z" transform="translate(87.2 17.246)" fill="#002452"/>
      <path id="Fill_20" data-name="Fill 20" d="M3.045,10.131H0L2.156,0H6.341A5.642,5.642,0,0,1,8,.221,3.194,3.194,0,0,1,9.161.831a2.42,2.42,0,0,1,.67.95,3.362,3.362,0,0,1,.222,1.24,3.457,3.457,0,0,1-.634,2.087A4.069,4.069,0,0,1,7.755,6.428l1.386,3.7H5.929L4.916,6.881H3.731L3.046,10.13Zm1.66-7.747h0L4.233,4.54H5.449a1.825,1.825,0,0,0,1.079-.291,1.032,1.032,0,0,0,.409-.9.933.933,0,0,0-.266-.715,1.265,1.265,0,0,0-.878-.249H4.705Z" transform="translate(98.955 17.246)" fill="#002452"/>
      <path id="Fill_22" data-name="Fill 22" d="M2.159,0H9.752L9.224,2.483H4.818L4.546,3.775H8.666L8.137,6.256H4.018l-.3,1.39H8.365L7.679,10.13H0Z" transform="translate(109.023 17.246)" fill="#002452"/>
      <g id="Group_26" data-name="Group 26" transform="translate(34.675 32.055)">
        <path id="Clip_25-2" data-name="Clip 25" d="M0,0H7.694V10.64H0Z" transform="translate(0.313 0.305)" fill="none"/>
        <g id="Group_26-2" data-name="Group 26" clip-path="url(#clip-path)">
          <path id="Fill_24" data-name="Fill 24" d="M.858,7.732A2.433,2.433,0,0,0,1.845,9.37a4.113,4.113,0,0,0,2.259.5A4.1,4.1,0,0,0,5.385,9.7a2.156,2.156,0,0,0,.808-.453,1.622,1.622,0,0,0,.429-.668,2.511,2.511,0,0,0,.129-.808A2.874,2.874,0,0,0,6.672,7.1a1.43,1.43,0,0,0-.3-.582,1.9,1.9,0,0,0-.637-.461,4.139,4.139,0,0,0-1.087-.311L3.375,5.533a8.678,8.678,0,0,1-1.322-.325,3.259,3.259,0,0,1-.98-.519,2.039,2.039,0,0,1-.607-.8A2.98,2.98,0,0,1,.258,2.71,2.386,2.386,0,0,1,.551,1.5,2.533,2.533,0,0,1,1.337.66,3.59,3.59,0,0,1,2.5.163,5.94,5.94,0,0,1,3.9,0a5.316,5.316,0,0,1,1.6.206A3.18,3.18,0,0,1,6.564.752a2.531,2.531,0,0,1,.644.773,4.768,4.768,0,0,1,.358.873l-.8.227a4.5,4.5,0,0,0-.336-.788,1.871,1.871,0,0,0-.515-.588A2.324,2.324,0,0,0,5.106.88,4.742,4.742,0,0,0,3.919.752,4.94,4.94,0,0,0,2.6.9a2.4,2.4,0,0,0-.858.412,1.491,1.491,0,0,0-.472.624,2.085,2.085,0,0,0-.143.773,2.443,2.443,0,0,0,.1.738,1.244,1.244,0,0,0,.343.539,1.989,1.989,0,0,0,.65.384,5.91,5.91,0,0,0,1.024.269l1.444.255a6.992,6.992,0,0,1,1.338.37,2.975,2.975,0,0,1,.935.574,2.141,2.141,0,0,1,.551.83A3.257,3.257,0,0,1,7.694,7.8a2.7,2.7,0,0,1-.229,1.1,2.506,2.506,0,0,1-.68.9,3.373,3.373,0,0,1-1.121.61,4.939,4.939,0,0,1-1.573.228,7.2,7.2,0,0,1-1.538-.156,3.754,3.754,0,0,1-1.244-.5,2.831,2.831,0,0,1-.879-.9A3.173,3.173,0,0,1,0,7.732Z" transform="translate(0.313 0.305)" fill="#002452"/>
        </g>
      </g>
      <path id="Fill_27" data-name="Fill 27" d="M0,0H.872V6.171a4.166,4.166,0,0,0,.673,2.583,2.632,2.632,0,0,0,2.216.865A3.5,3.5,0,0,0,5.084,9.4a2.091,2.091,0,0,0,.873-.652,2.758,2.758,0,0,0,.486-1.078,6.664,6.664,0,0,0,.15-1.5V0h.872V6.157a6.514,6.514,0,0,1-.251,1.922,3.339,3.339,0,0,1-.729,1.313,2.87,2.87,0,0,1-1.173.752,4.763,4.763,0,0,1-1.565.241,4.861,4.861,0,0,1-1.6-.241A2.832,2.832,0,0,1,.98,9.385,3.391,3.391,0,0,1,.25,8.052,6.723,6.723,0,0,1,0,6.1Z" transform="translate(44.627 32.615)" fill="#002452"/>
      <path id="Fill_29" data-name="Fill 29" d="M.859,10.13H0V0H3.29a6.027,6.027,0,0,1,1.83.235A2.843,2.843,0,0,1,6.242.866a2.115,2.115,0,0,1,.564.93,3.956,3.956,0,0,1,.158,1.127A4.315,4.315,0,0,1,6.8,4.115a2.334,2.334,0,0,1-.581.993,2.847,2.847,0,0,1-1.129.673,5.674,5.674,0,0,1-1.831.249H.859v4.1Zm0-9.379V5.278H3.274a5.016,5.016,0,0,0,1.4-.163,2.11,2.11,0,0,0,.858-.461,1.535,1.535,0,0,0,.429-.724,3.733,3.733,0,0,0,.114-.966,3.306,3.306,0,0,0-.129-.979A1.477,1.477,0,0,0,5.5,1.3,2.1,2.1,0,0,0,4.634.887,5.86,5.86,0,0,0,3.261.752Z" transform="translate(54.366 32.615)" fill="#002452"/>
      <path id="Fill_31" data-name="Fill 31" d="M.859,10.13H0V0H3.29A6.035,6.035,0,0,1,5.12.235,2.843,2.843,0,0,1,6.243.866a2.121,2.121,0,0,1,.563.93,3.956,3.956,0,0,1,.158,1.127A4.315,4.315,0,0,1,6.8,4.115a2.341,2.341,0,0,1-.58.993,2.858,2.858,0,0,1-1.129.673,5.674,5.674,0,0,1-1.831.249H.859v4.1Zm0-9.379V5.278H3.275a5.012,5.012,0,0,0,1.4-.163,2.12,2.12,0,0,0,.859-.461,1.525,1.525,0,0,0,.428-.724,3.729,3.729,0,0,0,.115-.966,3.333,3.333,0,0,0-.129-.979A1.482,1.482,0,0,0,5.5,1.3,2.1,2.1,0,0,0,4.634.887,5.86,5.86,0,0,0,3.261.752Z" transform="translate(63.075 32.615)" fill="#002452"/>
      <path id="Fill_33" data-name="Fill 33" d="M0,0H.872V9.321H6.42l-.185.809H0Z" transform="translate(71.784 32.615)" fill="#002452"/>
      <path id="Clip_36-2" data-name="Clip 36" d="M0,42.223H118.775V0H0Z" transform="translate(0 0.777)" fill="none"/>
      <g id="Mask_Group_8" data-name="Mask Group 8" clip-path="url(#clip-path-2)">
        <path id="Fill_35" data-name="Fill 35" d="M0,10.13H.872V0H0Z" transform="translate(79.649 32.615)" fill="#002452"/>
        <path id="Fill_37" data-name="Fill 37" d="M0,0H6.421V.781H.872V4.5H6.135v.809H.872V9.336H6.665l-.2.794H0Z" transform="translate(82.866 32.615)" fill="#002452"/>
        <path id="Fill_38" data-name="Fill 38" d="M.859,10.131H0V0H3.2A5.72,5.72,0,0,1,5.012.241,3.041,3.041,0,0,1,6.127.866a1.991,1.991,0,0,1,.558.879,3.477,3.477,0,0,1,.15,1.007A3,3,0,0,1,6.4,4.4,2.7,2.7,0,0,1,4.977,5.433l2.2,4.7H6.163l-2.045-4.5c-.155.019-.319.035-.5.05-.166.014-.344.021-.544.021H.859V10.13Zm0-9.38V4.937H3.317A4.678,4.678,0,0,0,4.6,4.788a1.934,1.934,0,0,0,.807-.433,1.553,1.553,0,0,0,.422-.68,3.139,3.139,0,0,0,.122-.909,2.73,2.73,0,0,0-.128-.871,1.368,1.368,0,0,0-.451-.632A2.2,2.2,0,0,0,4.512.879,6.019,6.019,0,0,0,3.161.752Z" transform="translate(91.276 32.615)" fill="#002452"/>
        <path id="Fill_39" data-name="Fill 39" d="M19.694,2.409a.489.489,0,0,0-.082-.095L17.721.575a.476.476,0,0,0-.136-.091A2.435,2.435,0,0,0,16.13,0H2.434A2.426,2.426,0,0,0,0,2.414V16a2.39,2.39,0,0,0,.66,1.649l0-.005a.8.8,0,0,0,.08.088s1.862,1.713,1.88,1.724a2.424,2.424,0,0,0,1.607.606H5.9V17.3H2.921V4.063a1.308,1.308,0,0,1,1.311-1.3l13.21,0V16a1.309,1.309,0,0,1-1.311,1.3l-6.185,0v2.761h7.983a2.426,2.426,0,0,0,2.434-2.414V4.063a2.374,2.374,0,0,0-.668-1.654" transform="translate(0 0.777)" fill="#ffb512"/>
        <path id="Fill_40" data-name="Fill 40" d="M19.693,2.4a.441.441,0,0,0-.08-.091L17.721.574a.515.515,0,0,0-.134-.09A2.439,2.439,0,0,0,16.13,0H14.457V2.761h2.986V16a1.309,1.309,0,0,1-1.314,1.3l-13.209,0V4.061a1.309,1.309,0,0,1,1.312-1.3h6.183V0H2.434A2.426,2.426,0,0,0,0,2.413V16A2.392,2.392,0,0,0,.66,17.65l0,0a.635.635,0,0,0,.081.088s1.864,1.714,1.88,1.725a2.429,2.429,0,0,0,1.607.605h13.7a2.426,2.426,0,0,0,2.433-2.413V4.061A2.376,2.376,0,0,0,19.693,2.4" transform="translate(6.465 7.078)" fill="#ffb512"/>
      </g>
    </g>
  </g>
</svg>
